<svg width="24" height="24" viewBox="0 0 24 24" fill="none" xmlns="http://www.w3.org/2000/svg">
<path d="M11.293 4.29289C11.6835 3.90237 12.3165 3.90237 12.707 4.29289C13.0975 4.68342 13.0975 5.31645 12.707 5.70695L7.41406 10.9999H19C19.5523 10.9999 20 11.4476 20 11.9999C19.9999 12.5522 19.5522 12.9999 19 12.9999H7.41406L12.707 18.2929C13.0975 18.6834 13.0975 19.3165 12.707 19.707C12.3165 20.0975 11.6835 20.0974 11.293 19.707L4.29297 12.707C4.26184 12.6758 4.23417 12.6423 4.20801 12.6083C4.19423 12.5904 4.18053 12.5725 4.16797 12.5536C4.14006 12.5118 4.11566 12.4684 4.09473 12.4237C4.07465 12.381 4.0569 12.3368 4.04297 12.2909C4.0379 12.2742 4.03445 12.2571 4.03027 12.2402C4.01124 12.1631 4.00001 12.0828 4 11.9999C4 11.9203 4.00974 11.8428 4.02734 11.7685C4.03221 11.7479 4.03678 11.7272 4.04297 11.707C4.05787 11.6582 4.07777 11.6116 4.09961 11.5663C4.11878 11.5265 4.14029 11.4876 4.16504 11.4501C4.20242 11.3935 4.24516 11.3407 4.29297 11.2929L11.293 4.29289Z" fill="#9F9F9F"/>
</svg>
