<svg width="20" height="21" viewBox="0 0 20 21" fill="none" xmlns="http://www.w3.org/2000/svg">
<path d="M10 0C10.6202 0 11.2229 0.192338 11.7266 0.546875L11.9365 0.708984L11.9414 0.712891L18.9365 6.70898L19.0586 6.81738C19.3355 7.07865 19.561 7.39104 19.7217 7.7373C19.9051 8.1328 20 8.56404 20 9V18C19.9999 18.7955 19.6836 19.5596 19.1211 20.1221C18.5585 20.6844 17.7954 21 17 21H3C2.20458 21 1.44147 20.6844 0.878906 20.1221C0.316409 19.5596 0.000125335 18.7955 0 18V9C-2.00802e-08 8.56404 0.0949031 8.1328 0.27832 7.7373C0.461932 7.34159 0.730348 6.99063 1.06348 6.70898L8.05859 0.712891L8.06348 0.708984C8.60496 0.251347 9.29104 0 10 0ZM10 2C9.76368 2 9.53498 2.08378 9.35449 2.23633L9.35352 2.23535L2.35938 8.23145L2.35449 8.23633C2.24352 8.33019 2.15395 8.44726 2.09277 8.5791C2.03171 8.71086 2 8.85478 2 9V18C2.00013 18.265 2.10554 18.5206 2.29297 18.708C2.48046 18.8952 2.73501 19 3 19H6V12C6 11.4696 6.21087 10.961 6.58594 10.5859C6.96101 10.2109 7.46957 10 8 10H12C12.5304 10 13.039 10.2109 13.4141 10.5859C13.7891 10.961 14 11.4696 14 12V19H17C17.265 19 17.5195 18.8952 17.707 18.708C17.8945 18.5206 17.9999 18.265 18 18V9C18 8.85478 17.9683 8.71086 17.9072 8.5791C17.8461 8.44726 17.7565 8.33019 17.6455 8.23633L17.6406 8.23145L10.6455 2.23535V2.23633C10.465 2.08378 10.2363 2 10 2ZM8 19H12V12H8V19Z" fill="#4A4A4A" fill-opacity="0.6"/>
</svg>
